<?xml version="1.0" encoding="UTF-8"?>
<svg id="Layer_3" data-name="Layer 3" xmlns="http://www.w3.org/2000/svg" viewBox="0 0 2048 2048">
  <defs>
    <style>
      .cls-1 {
        fill: #fff;
        stroke-width: 0px;
      }
    </style>
  </defs>
  <path class="cls-1" d="m1571.19,371.89c-75.28,78.6-150.1,156.73-225.19,235.12-10.94,11.42-28.81,12.54-41.11,2.58-123.22-99.8-263.6-142.68-423.64-119.99-138.19,19.59-252.54,83.99-343.92,189.06-172.47,198.31-173.53,493.86-.69,701.96,170.14,204.86,471.76,269.64,719.21,114.2,13.15-8.26,30.4-5.29,39.91,6.98,64.47,83.25,129.06,166.64,194.84,251.58,10.75,13.88,7.38,33.98-7.3,43.62-120.03,78.81-251.08,129.97-394.51,147.86-262.41,32.73-502.76-25.41-710.92-191.18C-30.1,1428.8-89.71,823.94,242.32,433.17,571.16,46.15,1156.18-21.82,1568.83,328.02c13.26,11.24,14.39,31.31,2.36,43.87Z"/>
  <path class="cls-1" d="m797.52,655.87c-1.56-2.16-.01-5.19,2.66-5.19,4.11,0,7.25,0,10.39,0,98.96.11,197.91.38,296.87.13,12.99-.03,21.63,3.77,29.98,14.55,54.44,70.23,109.76,139.76,164.79,209.53h0c3.77,4.79,10.93,5.05,15.06.57,14.34-15.59,27.94-30.32,41.43-45.15,51.76-56.93,103.34-114.01,155.39-170.67,3.99-4.34,11.02-8.33,16.66-8.37,109.47-.74,211.68-.89,321.15-1.1h0c5.47.02,8.34,6.51,4.67,10.57-21.06,23.3-41.59,46.11-62.27,68.78-58.9,64.61-117.84,129.18-176.85,193.69-20.61,22.53-41.43,44.87-62.27,67.19-44.86,48.05-51.05,100.22-14.37,155.04,32.38,48.38,66.58,95.71,102.51,141.52,106.44,135.71,214.08,270.48,321.37,405.52,17.53,22.06,35.73,43.59,53.54,65.43h0c5.12,6.29.64,15.7-7.47,15.7-31.34,0-61,0-90.65,0-72.66-.01-145.33.19-217.99-.45-6.45-.06-14.98-3.93-18.97-8.9-75.25-93.94-149.99-188.29-224.75-282.61-57.55-72.61-114.98-145.31-172.53-217.91h0c-3.6-4.52-10.41-4.69-14.24-.37-24.55,27.67-48.6,55.03-73.04,82.03-17.97,19.85-36.27,39.44-55.13,58.44-4.43,4.46-13.23,8.09-19.52,8.11-100.39.2-200.78-.12-301.16-.43-5.94-.02-12.56.13-20.7-.15-2.79-.1-4.17-3.43-2.3-5.5,8.99-9.9,17.17-18.92,24.7-27,73.29-78.68,146.73-157.23,219.87-236.04,23.01-24.8,38.59-52.58,38.14-88.32-.34-27.57-11.23-50.18-27.27-70.66-83.05-106.04-166.6-211.69-249.95-317.5-2.45-3.12-4.76-6.34-7.75-10.47Z"/>
</svg>